<mxfile host="65bd71144e">
    <diagram name="Page-1" id="U3XyFL_ZbY4wMuc_LF6b">
        <mxGraphModel dx="1790" dy="2018" grid="0" gridSize="10" guides="0" tooltips="1" connect="1" arrows="1" fold="1" page="0" pageScale="1" pageWidth="827" pageHeight="583" background="#000000" math="0" shadow="0">
            <root>
                <mxCell id="0"/>
                <mxCell id="1" parent="0"/>
                <mxCell id="fZQeGDUFqkQw0Y8u2uUr-1" value="User" style="shape=table;startSize=30;container=1;collapsible=1;childLayout=tableLayout;fixedRows=1;rowLines=0;fontStyle=1;align=center;resizeLast=1;html=1;labelBackgroundColor=none;fillColor=#008a00;strokeColor=#005700;fontColor=#ffffff;rounded=0;" parent="1" vertex="1">
                    <mxGeometry x="630" y="430" width="180" height="240" as="geometry">
                        <mxRectangle x="1050" y="610" width="70" height="30" as="alternateBounds"/>
                    </mxGeometry>
                </mxCell>
                <mxCell id="fZQeGDUFqkQw0Y8u2uUr-2" value="" style="shape=tableRow;horizontal=0;startSize=0;swimlaneHead=0;swimlaneBody=0;fillColor=none;collapsible=0;dropTarget=0;points=[[0,0.5],[1,0.5]];portConstraint=eastwest;top=0;left=0;right=0;bottom=1;labelBackgroundColor=none;strokeColor=#457B9D;fontColor=#FFFFFF;rounded=0;" parent="fZQeGDUFqkQw0Y8u2uUr-1" vertex="1">
                    <mxGeometry y="30" width="180" height="30" as="geometry"/>
                </mxCell>
                <mxCell id="fZQeGDUFqkQw0Y8u2uUr-3" value="PK" style="shape=partialRectangle;connectable=0;fillColor=none;top=0;left=0;bottom=0;right=0;fontStyle=1;overflow=hidden;whiteSpace=wrap;html=1;labelBackgroundColor=none;strokeColor=#457B9D;fontColor=#FFFFFF;rounded=0;" parent="fZQeGDUFqkQw0Y8u2uUr-2" vertex="1">
                    <mxGeometry width="30" height="30" as="geometry">
                        <mxRectangle width="30" height="30" as="alternateBounds"/>
                    </mxGeometry>
                </mxCell>
                <mxCell id="fZQeGDUFqkQw0Y8u2uUr-4" value="UserID" style="shape=partialRectangle;connectable=0;fillColor=none;top=0;left=0;bottom=0;right=0;align=left;spacingLeft=6;fontStyle=5;overflow=hidden;whiteSpace=wrap;html=1;labelBackgroundColor=none;strokeColor=#457B9D;fontColor=#FFFFFF;rounded=0;" parent="fZQeGDUFqkQw0Y8u2uUr-2" vertex="1">
                    <mxGeometry x="30" width="150" height="30" as="geometry">
                        <mxRectangle width="150" height="30" as="alternateBounds"/>
                    </mxGeometry>
                </mxCell>
                <mxCell id="fZQeGDUFqkQw0Y8u2uUr-5" value="" style="shape=tableRow;horizontal=0;startSize=0;swimlaneHead=0;swimlaneBody=0;fillColor=none;collapsible=0;dropTarget=0;points=[[0,0.5],[1,0.5]];portConstraint=eastwest;top=0;left=0;right=0;bottom=0;labelBackgroundColor=none;strokeColor=#457B9D;fontColor=#FFFFFF;rounded=0;" parent="fZQeGDUFqkQw0Y8u2uUr-1" vertex="1">
                    <mxGeometry y="60" width="180" height="30" as="geometry"/>
                </mxCell>
                <mxCell id="fZQeGDUFqkQw0Y8u2uUr-6" value="" style="shape=partialRectangle;connectable=0;fillColor=none;top=0;left=0;bottom=0;right=0;editable=1;overflow=hidden;whiteSpace=wrap;html=1;labelBackgroundColor=none;strokeColor=#457B9D;fontColor=#FFFFFF;rounded=0;" parent="fZQeGDUFqkQw0Y8u2uUr-5" vertex="1">
                    <mxGeometry width="30" height="30" as="geometry">
                        <mxRectangle width="30" height="30" as="alternateBounds"/>
                    </mxGeometry>
                </mxCell>
                <mxCell id="fZQeGDUFqkQw0Y8u2uUr-7" value="username" style="shape=partialRectangle;connectable=0;fillColor=none;top=0;left=0;bottom=0;right=0;align=left;spacingLeft=6;overflow=hidden;whiteSpace=wrap;html=1;labelBackgroundColor=none;strokeColor=#457B9D;fontColor=#FFFFFF;rounded=0;" parent="fZQeGDUFqkQw0Y8u2uUr-5" vertex="1">
                    <mxGeometry x="30" width="150" height="30" as="geometry">
                        <mxRectangle width="150" height="30" as="alternateBounds"/>
                    </mxGeometry>
                </mxCell>
                <mxCell id="fZQeGDUFqkQw0Y8u2uUr-8" value="" style="shape=tableRow;horizontal=0;startSize=0;swimlaneHead=0;swimlaneBody=0;fillColor=none;collapsible=0;dropTarget=0;points=[[0,0.5],[1,0.5]];portConstraint=eastwest;top=0;left=0;right=0;bottom=0;labelBackgroundColor=none;strokeColor=#457B9D;fontColor=#FFFFFF;rounded=0;" parent="fZQeGDUFqkQw0Y8u2uUr-1" vertex="1">
                    <mxGeometry y="90" width="180" height="30" as="geometry"/>
                </mxCell>
                <mxCell id="fZQeGDUFqkQw0Y8u2uUr-9" value="" style="shape=partialRectangle;connectable=0;fillColor=none;top=0;left=0;bottom=0;right=0;editable=1;overflow=hidden;whiteSpace=wrap;html=1;labelBackgroundColor=none;strokeColor=#457B9D;fontColor=#FFFFFF;rounded=0;" parent="fZQeGDUFqkQw0Y8u2uUr-8" vertex="1">
                    <mxGeometry width="30" height="30" as="geometry">
                        <mxRectangle width="30" height="30" as="alternateBounds"/>
                    </mxGeometry>
                </mxCell>
                <mxCell id="fZQeGDUFqkQw0Y8u2uUr-10" value="password" style="shape=partialRectangle;connectable=0;fillColor=none;top=0;left=0;bottom=0;right=0;align=left;spacingLeft=6;overflow=hidden;whiteSpace=wrap;html=1;labelBackgroundColor=none;strokeColor=#457B9D;fontColor=#FFFFFF;rounded=0;" parent="fZQeGDUFqkQw0Y8u2uUr-8" vertex="1">
                    <mxGeometry x="30" width="150" height="30" as="geometry">
                        <mxRectangle width="150" height="30" as="alternateBounds"/>
                    </mxGeometry>
                </mxCell>
                <mxCell id="fZQeGDUFqkQw0Y8u2uUr-11" value="" style="shape=tableRow;horizontal=0;startSize=0;swimlaneHead=0;swimlaneBody=0;fillColor=none;collapsible=0;dropTarget=0;points=[[0,0.5],[1,0.5]];portConstraint=eastwest;top=0;left=0;right=0;bottom=0;labelBackgroundColor=none;strokeColor=#457B9D;fontColor=#FFFFFF;rounded=0;" parent="fZQeGDUFqkQw0Y8u2uUr-1" vertex="1">
                    <mxGeometry y="120" width="180" height="30" as="geometry"/>
                </mxCell>
                <mxCell id="fZQeGDUFqkQw0Y8u2uUr-12" value="" style="shape=partialRectangle;connectable=0;fillColor=none;top=0;left=0;bottom=0;right=0;editable=1;overflow=hidden;whiteSpace=wrap;html=1;labelBackgroundColor=none;strokeColor=#457B9D;fontColor=#FFFFFF;rounded=0;" parent="fZQeGDUFqkQw0Y8u2uUr-11" vertex="1">
                    <mxGeometry width="30" height="30" as="geometry">
                        <mxRectangle width="30" height="30" as="alternateBounds"/>
                    </mxGeometry>
                </mxCell>
                <mxCell id="fZQeGDUFqkQw0Y8u2uUr-13" value="email" style="shape=partialRectangle;connectable=0;fillColor=none;top=0;left=0;bottom=0;right=0;align=left;spacingLeft=6;overflow=hidden;whiteSpace=wrap;html=1;labelBackgroundColor=none;strokeColor=#457B9D;fontColor=#FFFFFF;rounded=0;" parent="fZQeGDUFqkQw0Y8u2uUr-11" vertex="1">
                    <mxGeometry x="30" width="150" height="30" as="geometry">
                        <mxRectangle width="150" height="30" as="alternateBounds"/>
                    </mxGeometry>
                </mxCell>
                <mxCell id="fZQeGDUFqkQw0Y8u2uUr-14" style="shape=tableRow;horizontal=0;startSize=0;swimlaneHead=0;swimlaneBody=0;fillColor=none;collapsible=0;dropTarget=0;points=[[0,0.5],[1,0.5]];portConstraint=eastwest;top=0;left=0;right=0;bottom=0;labelBackgroundColor=none;strokeColor=#457B9D;fontColor=#FFFFFF;rounded=0;" parent="fZQeGDUFqkQw0Y8u2uUr-1" vertex="1">
                    <mxGeometry y="150" width="180" height="30" as="geometry"/>
                </mxCell>
                <mxCell id="fZQeGDUFqkQw0Y8u2uUr-15" style="shape=partialRectangle;connectable=0;fillColor=none;top=0;left=0;bottom=0;right=0;editable=1;overflow=hidden;whiteSpace=wrap;html=1;labelBackgroundColor=none;strokeColor=#457B9D;fontColor=#FFFFFF;rounded=0;" parent="fZQeGDUFqkQw0Y8u2uUr-14" vertex="1">
                    <mxGeometry width="30" height="30" as="geometry">
                        <mxRectangle width="30" height="30" as="alternateBounds"/>
                    </mxGeometry>
                </mxCell>
                <mxCell id="fZQeGDUFqkQw0Y8u2uUr-16" value="birthday" style="shape=partialRectangle;connectable=0;fillColor=none;top=0;left=0;bottom=0;right=0;align=left;spacingLeft=6;overflow=hidden;whiteSpace=wrap;html=1;labelBackgroundColor=none;strokeColor=#457B9D;fontColor=#FFFFFF;rounded=0;" parent="fZQeGDUFqkQw0Y8u2uUr-14" vertex="1">
                    <mxGeometry x="30" width="150" height="30" as="geometry">
                        <mxRectangle width="150" height="30" as="alternateBounds"/>
                    </mxGeometry>
                </mxCell>
                <mxCell id="fZQeGDUFqkQw0Y8u2uUr-17" style="shape=tableRow;horizontal=0;startSize=0;swimlaneHead=0;swimlaneBody=0;fillColor=none;collapsible=0;dropTarget=0;points=[[0,0.5],[1,0.5]];portConstraint=eastwest;top=0;left=0;right=0;bottom=0;labelBackgroundColor=none;strokeColor=#457B9D;fontColor=#FFFFFF;rounded=0;" parent="fZQeGDUFqkQw0Y8u2uUr-1" vertex="1">
                    <mxGeometry y="180" width="180" height="30" as="geometry"/>
                </mxCell>
                <mxCell id="fZQeGDUFqkQw0Y8u2uUr-18" style="shape=partialRectangle;connectable=0;fillColor=none;top=0;left=0;bottom=0;right=0;editable=1;overflow=hidden;whiteSpace=wrap;html=1;labelBackgroundColor=none;strokeColor=#457B9D;fontColor=#FFFFFF;rounded=0;" parent="fZQeGDUFqkQw0Y8u2uUr-17" vertex="1">
                    <mxGeometry width="30" height="30" as="geometry">
                        <mxRectangle width="30" height="30" as="alternateBounds"/>
                    </mxGeometry>
                </mxCell>
                <mxCell id="fZQeGDUFqkQw0Y8u2uUr-19" value="address" style="shape=partialRectangle;connectable=0;fillColor=none;top=0;left=0;bottom=0;right=0;align=left;spacingLeft=6;overflow=hidden;whiteSpace=wrap;html=1;labelBackgroundColor=none;strokeColor=#457B9D;fontColor=#FFFFFF;rounded=0;" parent="fZQeGDUFqkQw0Y8u2uUr-17" vertex="1">
                    <mxGeometry x="30" width="150" height="30" as="geometry">
                        <mxRectangle width="150" height="30" as="alternateBounds"/>
                    </mxGeometry>
                </mxCell>
                <mxCell id="OFqDbIYOe_2my_a9MHT3-129" style="shape=tableRow;horizontal=0;startSize=0;swimlaneHead=0;swimlaneBody=0;fillColor=none;collapsible=0;dropTarget=0;points=[[0,0.5],[1,0.5]];portConstraint=eastwest;top=0;left=0;right=0;bottom=0;labelBackgroundColor=none;strokeColor=#457B9D;fontColor=#FFFFFF;rounded=0;" parent="fZQeGDUFqkQw0Y8u2uUr-1" vertex="1">
                    <mxGeometry y="210" width="180" height="30" as="geometry"/>
                </mxCell>
                <mxCell id="OFqDbIYOe_2my_a9MHT3-130" style="shape=partialRectangle;connectable=0;fillColor=none;top=0;left=0;bottom=0;right=0;editable=1;overflow=hidden;whiteSpace=wrap;html=1;labelBackgroundColor=none;strokeColor=#457B9D;fontColor=#FFFFFF;rounded=0;" parent="OFqDbIYOe_2my_a9MHT3-129" vertex="1">
                    <mxGeometry width="30" height="30" as="geometry">
                        <mxRectangle width="30" height="30" as="alternateBounds"/>
                    </mxGeometry>
                </mxCell>
                <mxCell id="OFqDbIYOe_2my_a9MHT3-131" value="wallet" style="shape=partialRectangle;connectable=0;fillColor=none;top=0;left=0;bottom=0;right=0;align=left;spacingLeft=6;overflow=hidden;whiteSpace=wrap;html=1;labelBackgroundColor=none;strokeColor=#457B9D;fontColor=#FFFFFF;rounded=0;" parent="OFqDbIYOe_2my_a9MHT3-129" vertex="1">
                    <mxGeometry x="30" width="150" height="30" as="geometry">
                        <mxRectangle width="150" height="30" as="alternateBounds"/>
                    </mxGeometry>
                </mxCell>
                <mxCell id="OFqDbIYOe_2my_a9MHT3-4" value="freinds" style="rhombus;whiteSpace=wrap;html=1;labelBackgroundColor=none;fillColor=#008a00;strokeColor=#005700;fontColor=#ffffff;rounded=0;" parent="1" vertex="1">
                    <mxGeometry x="403" y="367" width="54" height="26" as="geometry"/>
                </mxCell>
                <mxCell id="OFqDbIYOe_2my_a9MHT3-5" value="" style="endArrow=ERzeroToMany;html=1;rounded=0;labelBackgroundColor=none;strokeColor=#457B9D;fontColor=#FFFFFF;edgeStyle=orthogonalEdgeStyle;exitX=0.5;exitY=0;exitDx=0;exitDy=0;endFill=0;entryX=0.35;entryY=0.005;entryDx=0;entryDy=0;entryPerimeter=0;" parent="1" source="OFqDbIYOe_2my_a9MHT3-4" edge="1" target="fZQeGDUFqkQw0Y8u2uUr-1">
                    <mxGeometry width="50" height="50" relative="1" as="geometry">
                        <mxPoint x="433" y="342" as="sourcePoint"/>
                        <mxPoint x="630" y="480" as="targetPoint"/>
                    </mxGeometry>
                </mxCell>
                <mxCell id="OFqDbIYOe_2my_a9MHT3-7" value="UserID" style="text;html=1;align=center;verticalAlign=middle;whiteSpace=wrap;rounded=0;labelBackgroundColor=none;fontColor=#FFFFFF;fillColor=#009900;" parent="1" vertex="1">
                    <mxGeometry x="530" y="321" width="55" height="26" as="geometry"/>
                </mxCell>
                <mxCell id="OFqDbIYOe_2my_a9MHT3-8" value="" style="endArrow=ERzeroToMany;html=1;rounded=0;exitX=0.5;exitY=1;exitDx=0;exitDy=0;labelBackgroundColor=none;strokeColor=#457B9D;fontColor=#FFFFFF;edgeStyle=orthogonalEdgeStyle;endFill=0;" parent="1" source="OFqDbIYOe_2my_a9MHT3-4" target="fZQeGDUFqkQw0Y8u2uUr-1" edge="1">
                    <mxGeometry width="50" height="50" relative="1" as="geometry">
                        <mxPoint x="450" y="570" as="sourcePoint"/>
                        <mxPoint x="500" y="520" as="targetPoint"/>
                        <Array as="points">
                            <mxPoint x="430" y="452"/>
                        </Array>
                    </mxGeometry>
                </mxCell>
                <mxCell id="OFqDbIYOe_2my_a9MHT3-10" value="FreindID" style="text;html=1;align=center;verticalAlign=middle;whiteSpace=wrap;rounded=0;labelBackgroundColor=none;fontColor=#FFFFFF;fillColor=#009900;" parent="1" vertex="1">
                    <mxGeometry x="500" y="422" width="64" height="26" as="geometry"/>
                </mxCell>
                <mxCell id="OFqDbIYOe_2my_a9MHT3-11" value="followers" style="rhombus;whiteSpace=wrap;html=1;labelBackgroundColor=none;fillColor=#008a00;strokeColor=#005700;fontColor=#ffffff;rounded=0;" parent="1" vertex="1">
                    <mxGeometry x="398" y="687" width="65" height="26" as="geometry"/>
                </mxCell>
                <mxCell id="OFqDbIYOe_2my_a9MHT3-14" value="" style="endArrow=ERzeroToMany;html=1;rounded=0;labelBackgroundColor=none;strokeColor=#457B9D;fontColor=#FFFFFF;edgeStyle=orthogonalEdgeStyle;endFill=0;" parent="1" source="OFqDbIYOe_2my_a9MHT3-11" target="fZQeGDUFqkQw0Y8u2uUr-2" edge="1">
                    <mxGeometry width="50" height="50" relative="1" as="geometry">
                        <mxPoint x="440.20000000000005" y="580.4" as="sourcePoint"/>
                        <mxPoint x="630" y="580" as="targetPoint"/>
                        <Array as="points">
                            <mxPoint x="448" y="587"/>
                            <mxPoint x="577" y="587"/>
                            <mxPoint x="577" y="485"/>
                        </Array>
                    </mxGeometry>
                </mxCell>
                <mxCell id="OFqDbIYOe_2my_a9MHT3-15" value="UserID" style="text;html=1;align=center;verticalAlign=middle;whiteSpace=wrap;rounded=0;labelBackgroundColor=none;fontColor=#ffffff;fillColor=#008a00;strokeColor=#005700;" parent="1" vertex="1">
                    <mxGeometry x="505" y="562" width="55" height="26" as="geometry"/>
                </mxCell>
                <mxCell id="OFqDbIYOe_2my_a9MHT3-17" value="" style="endArrow=ERzeroToMany;html=1;rounded=0;labelBackgroundColor=none;strokeColor=#457B9D;fontColor=#FFFFFF;exitX=0.5;exitY=1;exitDx=0;exitDy=0;edgeStyle=orthogonalEdgeStyle;entryX=0;entryY=0.5;entryDx=0;entryDy=0;endFill=0;" parent="1" source="OFqDbIYOe_2my_a9MHT3-11" target="fZQeGDUFqkQw0Y8u2uUr-17" edge="1">
                    <mxGeometry width="50" height="50" relative="1" as="geometry">
                        <mxPoint x="441" y="622" as="sourcePoint"/>
                        <mxPoint x="629.72" y="619.6" as="targetPoint"/>
                    </mxGeometry>
                </mxCell>
                <mxCell id="OFqDbIYOe_2my_a9MHT3-18" value="FollowerID" style="text;html=1;align=center;verticalAlign=middle;whiteSpace=wrap;rounded=0;labelBackgroundColor=none;fontColor=#ffffff;fillColor=#008a00;strokeColor=#005700;" parent="1" vertex="1">
                    <mxGeometry x="465" y="730" width="75" height="26" as="geometry"/>
                </mxCell>
                <mxCell id="4" style="rounded=0;html=1;exitX=1;exitY=0.5;exitDx=0;exitDy=0;entryX=-0.004;entryY=0.246;entryDx=0;entryDy=0;labelBackgroundColor=default;strokeColor=#457B9D;fontFamily=Helvetica;fontSize=11;fontColor=#FFFFFF;endArrow=ERzeroToMany;fillColor=#A8DADC;entryPerimeter=0;edgeStyle=orthogonalEdgeStyle;endFill=0;" parent="1" source="OFqDbIYOe_2my_a9MHT3-44" target="OFqDbIYOe_2my_a9MHT3-63" edge="1">
                    <mxGeometry relative="1" as="geometry"/>
                </mxCell>
                <mxCell id="OFqDbIYOe_2my_a9MHT3-44" value="fav_song" style="rhombus;whiteSpace=wrap;html=1;labelBackgroundColor=none;fillColor=#008a00;strokeColor=#005700;fontColor=#ffffff;rounded=0;" parent="1" vertex="1">
                    <mxGeometry x="967" y="437" width="67" height="26" as="geometry"/>
                </mxCell>
                <mxCell id="OFqDbIYOe_2my_a9MHT3-47" value="" style="endArrow=none;html=1;rounded=0;strokeColor=#457B9D;fontColor=#FFFFFF;fillColor=#A8DADC;entryX=0;entryY=0.5;entryDx=0;entryDy=0;labelBackgroundColor=none;startArrow=ERzeroToMany;startFill=0;" parent="1" target="OFqDbIYOe_2my_a9MHT3-44" edge="1">
                    <mxGeometry width="50" height="50" relative="1" as="geometry">
                        <mxPoint x="808" y="450" as="sourcePoint"/>
                        <mxPoint x="860" y="410" as="targetPoint"/>
                    </mxGeometry>
                </mxCell>
                <mxCell id="66" style="edgeStyle=orthogonalEdgeStyle;shape=connector;rounded=0;html=1;exitX=0.5;exitY=0;exitDx=0;exitDy=0;labelBackgroundColor=none;strokeColor=#457B9D;fontFamily=Helvetica;fontSize=11;fontColor=#FFFFFF;endArrow=none;endFill=0;fillColor=#A8DADC;entryX=0.5;entryY=1;entryDx=0;entryDy=0;startArrow=ERmandOne;startFill=0;" edge="1" parent="1" source="OFqDbIYOe_2my_a9MHT3-49" target="64">
                    <mxGeometry relative="1" as="geometry">
                        <mxPoint x="1346.0001220703125" y="771.9999694824219" as="targetPoint"/>
                    </mxGeometry>
                </mxCell>
                <mxCell id="OFqDbIYOe_2my_a9MHT3-49" value="artist" style="shape=table;startSize=23;container=1;collapsible=1;childLayout=tableLayout;fixedRows=1;rowLines=0;fontStyle=1;align=center;resizeLast=1;html=1;strokeColor=#005700;fontColor=#ffffff;fillColor=#008a00;labelBackgroundColor=none;rounded=0;" parent="1" vertex="1">
                    <mxGeometry x="1171" y="851" width="180" height="53" as="geometry"/>
                </mxCell>
                <mxCell id="OFqDbIYOe_2my_a9MHT3-50" value="" style="shape=tableRow;horizontal=0;startSize=0;swimlaneHead=0;swimlaneBody=0;fillColor=none;collapsible=0;dropTarget=0;points=[[0,0.5],[1,0.5]];portConstraint=eastwest;top=0;left=0;right=0;bottom=1;strokeColor=#457B9D;fontColor=#FFFFFF;labelBackgroundColor=none;rounded=0;" parent="OFqDbIYOe_2my_a9MHT3-49" vertex="1">
                    <mxGeometry y="23" width="180" height="30" as="geometry"/>
                </mxCell>
                <mxCell id="OFqDbIYOe_2my_a9MHT3-51" value="PK" style="shape=partialRectangle;connectable=0;fillColor=none;top=0;left=0;bottom=0;right=0;fontStyle=1;overflow=hidden;whiteSpace=wrap;html=1;strokeColor=#457B9D;fontColor=#FFFFFF;labelBackgroundColor=none;rounded=0;" parent="OFqDbIYOe_2my_a9MHT3-50" vertex="1">
                    <mxGeometry width="30" height="30" as="geometry">
                        <mxRectangle width="30" height="30" as="alternateBounds"/>
                    </mxGeometry>
                </mxCell>
                <mxCell id="OFqDbIYOe_2my_a9MHT3-52" value="artistID" style="shape=partialRectangle;connectable=0;fillColor=none;top=0;left=0;bottom=0;right=0;align=left;spacingLeft=6;fontStyle=5;overflow=hidden;whiteSpace=wrap;html=1;strokeColor=#457B9D;fontColor=#FFFFFF;labelBackgroundColor=none;rounded=0;" parent="OFqDbIYOe_2my_a9MHT3-50" vertex="1">
                    <mxGeometry x="30" width="150" height="30" as="geometry">
                        <mxRectangle width="150" height="30" as="alternateBounds"/>
                    </mxGeometry>
                </mxCell>
                <mxCell id="OFqDbIYOe_2my_a9MHT3-62" value="Song" style="shape=table;startSize=30;container=1;collapsible=1;childLayout=tableLayout;fixedRows=1;rowLines=0;fontStyle=1;align=center;resizeLast=1;html=1;strokeColor=#005700;fontColor=#ffffff;fillColor=#008a00;labelBackgroundColor=none;rounded=0;" parent="1" vertex="1">
                    <mxGeometry x="1170" y="435" width="180" height="275" as="geometry"/>
                </mxCell>
                <mxCell id="OFqDbIYOe_2my_a9MHT3-63" value="" style="shape=tableRow;horizontal=0;startSize=0;swimlaneHead=0;swimlaneBody=0;fillColor=none;collapsible=0;dropTarget=0;points=[[0,0.5],[1,0.5]];portConstraint=eastwest;top=0;left=0;right=0;bottom=1;strokeColor=#457B9D;fontColor=#FFFFFF;labelBackgroundColor=none;rounded=0;" parent="OFqDbIYOe_2my_a9MHT3-62" vertex="1">
                    <mxGeometry y="30" width="180" height="35" as="geometry"/>
                </mxCell>
                <mxCell id="OFqDbIYOe_2my_a9MHT3-64" value="PK" style="shape=partialRectangle;connectable=0;fillColor=none;top=0;left=0;bottom=0;right=0;fontStyle=1;overflow=hidden;whiteSpace=wrap;html=1;strokeColor=#457B9D;fontColor=#FFFFFF;labelBackgroundColor=none;rounded=0;" parent="OFqDbIYOe_2my_a9MHT3-63" vertex="1">
                    <mxGeometry width="30" height="35" as="geometry">
                        <mxRectangle width="30" height="35" as="alternateBounds"/>
                    </mxGeometry>
                </mxCell>
                <mxCell id="OFqDbIYOe_2my_a9MHT3-65" value="SongID" style="shape=partialRectangle;connectable=0;fillColor=none;top=0;left=0;bottom=0;right=0;align=left;spacingLeft=6;fontStyle=5;overflow=hidden;whiteSpace=wrap;html=1;strokeColor=#457B9D;fontColor=#FFFFFF;labelBackgroundColor=none;rounded=0;" parent="OFqDbIYOe_2my_a9MHT3-63" vertex="1">
                    <mxGeometry x="30" width="150" height="35" as="geometry">
                        <mxRectangle width="150" height="35" as="alternateBounds"/>
                    </mxGeometry>
                </mxCell>
                <mxCell id="OFqDbIYOe_2my_a9MHT3-66" value="" style="shape=tableRow;horizontal=0;startSize=0;swimlaneHead=0;swimlaneBody=0;fillColor=none;collapsible=0;dropTarget=0;points=[[0,0.5],[1,0.5]];portConstraint=eastwest;top=0;left=0;right=0;bottom=0;strokeColor=#457B9D;fontColor=#FFFFFF;labelBackgroundColor=none;rounded=0;" parent="OFqDbIYOe_2my_a9MHT3-62" vertex="1">
                    <mxGeometry y="65" width="180" height="30" as="geometry"/>
                </mxCell>
                <mxCell id="OFqDbIYOe_2my_a9MHT3-67" value="" style="shape=partialRectangle;connectable=0;fillColor=none;top=0;left=0;bottom=0;right=0;editable=1;overflow=hidden;whiteSpace=wrap;html=1;strokeColor=#457B9D;fontColor=#FFFFFF;labelBackgroundColor=none;rounded=0;" parent="OFqDbIYOe_2my_a9MHT3-66" vertex="1">
                    <mxGeometry width="30" height="30" as="geometry">
                        <mxRectangle width="30" height="30" as="alternateBounds"/>
                    </mxGeometry>
                </mxCell>
                <mxCell id="OFqDbIYOe_2my_a9MHT3-68" value="name" style="shape=partialRectangle;connectable=0;fillColor=none;top=0;left=0;bottom=0;right=0;align=left;spacingLeft=6;overflow=hidden;whiteSpace=wrap;html=1;strokeColor=#457B9D;fontColor=#FFFFFF;labelBackgroundColor=none;rounded=0;" parent="OFqDbIYOe_2my_a9MHT3-66" vertex="1">
                    <mxGeometry x="30" width="150" height="30" as="geometry">
                        <mxRectangle width="150" height="30" as="alternateBounds"/>
                    </mxGeometry>
                </mxCell>
                <mxCell id="OFqDbIYOe_2my_a9MHT3-69" value="" style="shape=tableRow;horizontal=0;startSize=0;swimlaneHead=0;swimlaneBody=0;fillColor=none;collapsible=0;dropTarget=0;points=[[0,0.5],[1,0.5]];portConstraint=eastwest;top=0;left=0;right=0;bottom=0;strokeColor=#457B9D;fontColor=#FFFFFF;labelBackgroundColor=none;rounded=0;" parent="OFqDbIYOe_2my_a9MHT3-62" vertex="1">
                    <mxGeometry y="95" width="180" height="30" as="geometry"/>
                </mxCell>
                <mxCell id="OFqDbIYOe_2my_a9MHT3-70" value="" style="shape=partialRectangle;connectable=0;fillColor=none;top=0;left=0;bottom=0;right=0;editable=1;overflow=hidden;whiteSpace=wrap;html=1;strokeColor=#457B9D;fontColor=#FFFFFF;labelBackgroundColor=none;rounded=0;" parent="OFqDbIYOe_2my_a9MHT3-69" vertex="1">
                    <mxGeometry width="30" height="30" as="geometry">
                        <mxRectangle width="30" height="30" as="alternateBounds"/>
                    </mxGeometry>
                </mxCell>
                <mxCell id="OFqDbIYOe_2my_a9MHT3-71" value="artist_name" style="shape=partialRectangle;connectable=0;fillColor=none;top=0;left=0;bottom=0;right=0;align=left;spacingLeft=6;overflow=hidden;whiteSpace=wrap;html=1;strokeColor=#457B9D;fontColor=#FFFFFF;labelBackgroundColor=none;rounded=0;" parent="OFqDbIYOe_2my_a9MHT3-69" vertex="1">
                    <mxGeometry x="30" width="150" height="30" as="geometry">
                        <mxRectangle width="150" height="30" as="alternateBounds"/>
                    </mxGeometry>
                </mxCell>
                <mxCell id="OFqDbIYOe_2my_a9MHT3-158" style="shape=tableRow;horizontal=0;startSize=0;swimlaneHead=0;swimlaneBody=0;fillColor=none;collapsible=0;dropTarget=0;points=[[0,0.5],[1,0.5]];portConstraint=eastwest;top=0;left=0;right=0;bottom=0;strokeColor=#457B9D;fontColor=#FFFFFF;labelBackgroundColor=none;rounded=0;" parent="OFqDbIYOe_2my_a9MHT3-62" vertex="1">
                    <mxGeometry y="125" width="180" height="30" as="geometry"/>
                </mxCell>
                <mxCell id="OFqDbIYOe_2my_a9MHT3-159" style="shape=partialRectangle;connectable=0;fillColor=none;top=0;left=0;bottom=0;right=0;editable=1;overflow=hidden;whiteSpace=wrap;html=1;strokeColor=#457B9D;fontColor=#FFFFFF;labelBackgroundColor=none;rounded=0;" parent="OFqDbIYOe_2my_a9MHT3-158" vertex="1">
                    <mxGeometry width="30" height="30" as="geometry">
                        <mxRectangle width="30" height="30" as="alternateBounds"/>
                    </mxGeometry>
                </mxCell>
                <mxCell id="OFqDbIYOe_2my_a9MHT3-160" value="genre" style="shape=partialRectangle;connectable=0;fillColor=none;top=0;left=0;bottom=0;right=0;align=left;spacingLeft=6;overflow=hidden;whiteSpace=wrap;html=1;strokeColor=#457B9D;fontColor=#FFFFFF;labelBackgroundColor=none;rounded=0;" parent="OFqDbIYOe_2my_a9MHT3-158" vertex="1">
                    <mxGeometry x="30" width="150" height="30" as="geometry">
                        <mxRectangle width="150" height="30" as="alternateBounds"/>
                    </mxGeometry>
                </mxCell>
                <mxCell id="07pzX-aF63wN3rvmMnTV-4" style="shape=tableRow;horizontal=0;startSize=0;swimlaneHead=0;swimlaneBody=0;fillColor=none;collapsible=0;dropTarget=0;points=[[0,0.5],[1,0.5]];portConstraint=eastwest;top=0;left=0;right=0;bottom=0;strokeColor=#457B9D;fontColor=#FFFFFF;labelBackgroundColor=none;rounded=0;" parent="OFqDbIYOe_2my_a9MHT3-62" vertex="1">
                    <mxGeometry y="155" width="180" height="30" as="geometry"/>
                </mxCell>
                <mxCell id="07pzX-aF63wN3rvmMnTV-5" style="shape=partialRectangle;connectable=0;fillColor=none;top=0;left=0;bottom=0;right=0;editable=1;overflow=hidden;whiteSpace=wrap;html=1;strokeColor=#457B9D;fontColor=#FFFFFF;labelBackgroundColor=none;rounded=0;" parent="07pzX-aF63wN3rvmMnTV-4" vertex="1">
                    <mxGeometry width="30" height="30" as="geometry">
                        <mxRectangle width="30" height="30" as="alternateBounds"/>
                    </mxGeometry>
                </mxCell>
                <mxCell id="07pzX-aF63wN3rvmMnTV-6" value="lyric" style="shape=partialRectangle;connectable=0;fillColor=none;top=0;left=0;bottom=0;right=0;align=left;spacingLeft=6;overflow=hidden;whiteSpace=wrap;html=1;strokeColor=#457B9D;fontColor=#FFFFFF;labelBackgroundColor=none;rounded=0;" parent="07pzX-aF63wN3rvmMnTV-4" vertex="1">
                    <mxGeometry x="30" width="150" height="30" as="geometry">
                        <mxRectangle width="150" height="30" as="alternateBounds"/>
                    </mxGeometry>
                </mxCell>
                <mxCell id="OFqDbIYOe_2my_a9MHT3-161" style="shape=tableRow;horizontal=0;startSize=0;swimlaneHead=0;swimlaneBody=0;fillColor=none;collapsible=0;dropTarget=0;points=[[0,0.5],[1,0.5]];portConstraint=eastwest;top=0;left=0;right=0;bottom=0;strokeColor=#457B9D;fontColor=#FFFFFF;labelBackgroundColor=none;rounded=0;" parent="OFqDbIYOe_2my_a9MHT3-62" vertex="1">
                    <mxGeometry y="185" width="180" height="30" as="geometry"/>
                </mxCell>
                <mxCell id="OFqDbIYOe_2my_a9MHT3-162" style="shape=partialRectangle;connectable=0;fillColor=none;top=0;left=0;bottom=0;right=0;editable=1;overflow=hidden;whiteSpace=wrap;html=1;strokeColor=#457B9D;fontColor=#FFFFFF;labelBackgroundColor=none;rounded=0;" parent="OFqDbIYOe_2my_a9MHT3-161" vertex="1">
                    <mxGeometry width="30" height="30" as="geometry">
                        <mxRectangle width="30" height="30" as="alternateBounds"/>
                    </mxGeometry>
                </mxCell>
                <mxCell id="OFqDbIYOe_2my_a9MHT3-163" value="country" style="shape=partialRectangle;connectable=0;fillColor=none;top=0;left=0;bottom=0;right=0;align=left;spacingLeft=6;overflow=hidden;whiteSpace=wrap;html=1;strokeColor=#457B9D;fontColor=#FFFFFF;labelBackgroundColor=none;rounded=0;" parent="OFqDbIYOe_2my_a9MHT3-161" vertex="1">
                    <mxGeometry x="30" width="150" height="30" as="geometry">
                        <mxRectangle width="150" height="30" as="alternateBounds"/>
                    </mxGeometry>
                </mxCell>
                <mxCell id="OFqDbIYOe_2my_a9MHT3-164" style="shape=tableRow;horizontal=0;startSize=0;swimlaneHead=0;swimlaneBody=0;fillColor=none;collapsible=0;dropTarget=0;points=[[0,0.5],[1,0.5]];portConstraint=eastwest;top=0;left=0;right=0;bottom=0;strokeColor=#457B9D;fontColor=#FFFFFF;labelBackgroundColor=none;rounded=0;" parent="OFqDbIYOe_2my_a9MHT3-62" vertex="1">
                    <mxGeometry y="215" width="180" height="30" as="geometry"/>
                </mxCell>
                <mxCell id="OFqDbIYOe_2my_a9MHT3-165" style="shape=partialRectangle;connectable=0;fillColor=none;top=0;left=0;bottom=0;right=0;editable=1;overflow=hidden;whiteSpace=wrap;html=1;strokeColor=#457B9D;fontColor=#FFFFFF;labelBackgroundColor=none;rounded=0;" parent="OFqDbIYOe_2my_a9MHT3-164" vertex="1">
                    <mxGeometry width="30" height="30" as="geometry">
                        <mxRectangle width="30" height="30" as="alternateBounds"/>
                    </mxGeometry>
                </mxCell>
                <mxCell id="OFqDbIYOe_2my_a9MHT3-166" value="ages" style="shape=partialRectangle;connectable=0;fillColor=none;top=0;left=0;bottom=0;right=0;align=left;spacingLeft=6;overflow=hidden;whiteSpace=wrap;html=1;strokeColor=#457B9D;fontColor=#FFFFFF;labelBackgroundColor=none;rounded=0;" parent="OFqDbIYOe_2my_a9MHT3-164" vertex="1">
                    <mxGeometry x="30" width="150" height="30" as="geometry">
                        <mxRectangle width="150" height="30" as="alternateBounds"/>
                    </mxGeometry>
                </mxCell>
                <mxCell id="61" style="shape=tableRow;horizontal=0;startSize=0;swimlaneHead=0;swimlaneBody=0;fillColor=none;collapsible=0;dropTarget=0;points=[[0,0.5],[1,0.5]];portConstraint=eastwest;top=0;left=0;right=0;bottom=0;strokeColor=#457B9D;fontColor=#FFFFFF;labelBackgroundColor=none;rounded=0;" vertex="1" parent="OFqDbIYOe_2my_a9MHT3-62">
                    <mxGeometry y="245" width="180" height="30" as="geometry"/>
                </mxCell>
                <mxCell id="62" style="shape=partialRectangle;connectable=0;fillColor=none;top=0;left=0;bottom=0;right=0;editable=1;overflow=hidden;whiteSpace=wrap;html=1;strokeColor=#457B9D;fontColor=#FFFFFF;labelBackgroundColor=none;rounded=0;" vertex="1" parent="61">
                    <mxGeometry width="30" height="30" as="geometry">
                        <mxRectangle width="30" height="30" as="alternateBounds"/>
                    </mxGeometry>
                </mxCell>
                <mxCell id="63" value="is_limited" style="shape=partialRectangle;connectable=0;fillColor=none;top=0;left=0;bottom=0;right=0;align=left;spacingLeft=6;overflow=hidden;whiteSpace=wrap;html=1;strokeColor=#457B9D;fontColor=#FFFFFF;labelBackgroundColor=none;rounded=0;" vertex="1" parent="61">
                    <mxGeometry x="30" width="150" height="30" as="geometry">
                        <mxRectangle width="150" height="30" as="alternateBounds"/>
                    </mxGeometry>
                </mxCell>
                <mxCell id="OFqDbIYOe_2my_a9MHT3-81" value="Concert" style="shape=table;startSize=30;container=1;collapsible=1;childLayout=tableLayout;fixedRows=1;rowLines=0;fontStyle=1;align=center;resizeLast=1;html=1;strokeColor=#005700;fontColor=#ffffff;fillColor=#008a00;labelBackgroundColor=none;rounded=0;perimeterSpacing=1;" parent="1" vertex="1">
                    <mxGeometry x="1620" y="740" width="180" height="90" as="geometry"/>
                </mxCell>
                <mxCell id="OFqDbIYOe_2my_a9MHT3-82" value="" style="shape=tableRow;horizontal=0;startSize=0;swimlaneHead=0;swimlaneBody=0;fillColor=none;collapsible=0;dropTarget=0;points=[[0,0.5],[1,0.5]];portConstraint=eastwest;top=0;left=0;right=0;bottom=1;strokeColor=#457B9D;fontColor=#FFFFFF;labelBackgroundColor=none;rounded=0;" parent="OFqDbIYOe_2my_a9MHT3-81" vertex="1">
                    <mxGeometry y="30" width="180" height="30" as="geometry"/>
                </mxCell>
                <mxCell id="OFqDbIYOe_2my_a9MHT3-83" value="PK" style="shape=partialRectangle;connectable=0;fillColor=none;top=0;left=0;bottom=0;right=0;fontStyle=1;overflow=hidden;whiteSpace=wrap;html=1;strokeColor=#457B9D;fontColor=#FFFFFF;labelBackgroundColor=none;rounded=0;" parent="OFqDbIYOe_2my_a9MHT3-82" vertex="1">
                    <mxGeometry width="30" height="30" as="geometry">
                        <mxRectangle width="30" height="30" as="alternateBounds"/>
                    </mxGeometry>
                </mxCell>
                <mxCell id="OFqDbIYOe_2my_a9MHT3-84" value="&lt;span style=&quot;text-align: center;&quot;&gt;Concert&lt;/span&gt;ID" style="shape=partialRectangle;connectable=0;fillColor=none;top=0;left=0;bottom=0;right=0;align=left;spacingLeft=6;fontStyle=5;overflow=hidden;whiteSpace=wrap;html=1;strokeColor=#457B9D;fontColor=#FFFFFF;labelBackgroundColor=none;rounded=0;" parent="OFqDbIYOe_2my_a9MHT3-82" vertex="1">
                    <mxGeometry x="30" width="150" height="30" as="geometry">
                        <mxRectangle width="150" height="30" as="alternateBounds"/>
                    </mxGeometry>
                </mxCell>
                <mxCell id="OFqDbIYOe_2my_a9MHT3-88" style="shape=tableRow;horizontal=0;startSize=0;swimlaneHead=0;swimlaneBody=0;fillColor=none;collapsible=0;dropTarget=0;points=[[0,0.5],[1,0.5]];portConstraint=eastwest;top=0;left=0;right=0;bottom=0;strokeColor=#457B9D;fontColor=#FFFFFF;labelBackgroundColor=none;rounded=0;" parent="OFqDbIYOe_2my_a9MHT3-81" vertex="1">
                    <mxGeometry y="60" width="180" height="30" as="geometry"/>
                </mxCell>
                <mxCell id="OFqDbIYOe_2my_a9MHT3-89" style="shape=partialRectangle;connectable=0;fillColor=none;top=0;left=0;bottom=0;right=0;editable=1;overflow=hidden;whiteSpace=wrap;html=1;strokeColor=#457B9D;fontColor=#FFFFFF;labelBackgroundColor=none;rounded=0;" parent="OFqDbIYOe_2my_a9MHT3-88" vertex="1">
                    <mxGeometry width="30" height="30" as="geometry">
                        <mxRectangle width="30" height="30" as="alternateBounds"/>
                    </mxGeometry>
                </mxCell>
                <mxCell id="OFqDbIYOe_2my_a9MHT3-90" value="price" style="shape=partialRectangle;connectable=0;fillColor=none;top=0;left=0;bottom=0;right=0;align=left;spacingLeft=6;overflow=hidden;whiteSpace=wrap;html=1;strokeColor=#457B9D;fontColor=#FFFFFF;labelBackgroundColor=none;rounded=0;" parent="OFqDbIYOe_2my_a9MHT3-88" vertex="1">
                    <mxGeometry x="30" width="150" height="30" as="geometry">
                        <mxRectangle width="150" height="30" as="alternateBounds"/>
                    </mxGeometry>
                </mxCell>
                <mxCell id="OFqDbIYOe_2my_a9MHT3-108" value="album" style="shape=table;startSize=30;container=1;collapsible=1;childLayout=tableLayout;fixedRows=1;rowLines=0;fontStyle=1;align=center;resizeLast=1;html=1;labelBackgroundColor=none;shadow=1;rounded=0;fillColor=#008a00;fontColor=#ffffff;strokeColor=#005700;" parent="1" vertex="1">
                    <mxGeometry x="1670" y="430" width="180" height="150" as="geometry">
                        <mxRectangle x="1670" y="430" width="70" height="30" as="alternateBounds"/>
                    </mxGeometry>
                </mxCell>
                <mxCell id="OFqDbIYOe_2my_a9MHT3-109" value="" style="shape=tableRow;horizontal=0;startSize=0;swimlaneHead=0;swimlaneBody=0;fillColor=none;collapsible=0;dropTarget=0;points=[[0,0.5],[1,0.5]];portConstraint=eastwest;top=0;left=0;right=0;bottom=1;strokeColor=#457B9D;fontColor=#FFFFFF;labelBackgroundColor=none;rounded=0;" parent="OFqDbIYOe_2my_a9MHT3-108" vertex="1">
                    <mxGeometry y="30" width="180" height="30" as="geometry"/>
                </mxCell>
                <mxCell id="OFqDbIYOe_2my_a9MHT3-110" value="PK" style="shape=partialRectangle;connectable=0;fillColor=none;top=0;left=0;bottom=0;right=0;fontStyle=1;overflow=hidden;whiteSpace=wrap;html=1;strokeColor=#457B9D;fontColor=#FFFFFF;labelBackgroundColor=none;rounded=0;" parent="OFqDbIYOe_2my_a9MHT3-109" vertex="1">
                    <mxGeometry width="30" height="30" as="geometry">
                        <mxRectangle width="30" height="30" as="alternateBounds"/>
                    </mxGeometry>
                </mxCell>
                <mxCell id="OFqDbIYOe_2my_a9MHT3-111" value="Title" style="shape=partialRectangle;connectable=0;fillColor=none;top=0;left=0;bottom=0;right=0;align=left;spacingLeft=6;fontStyle=5;overflow=hidden;whiteSpace=wrap;html=1;strokeColor=#457B9D;fontColor=#FFFFFF;labelBackgroundColor=none;rounded=0;" parent="OFqDbIYOe_2my_a9MHT3-109" vertex="1">
                    <mxGeometry x="30" width="150" height="30" as="geometry">
                        <mxRectangle width="150" height="30" as="alternateBounds"/>
                    </mxGeometry>
                </mxCell>
                <mxCell id="13" style="shape=tableRow;horizontal=0;startSize=0;swimlaneHead=0;swimlaneBody=0;fillColor=none;collapsible=0;dropTarget=0;points=[[0,0.5],[1,0.5]];portConstraint=eastwest;top=0;left=0;right=0;bottom=1;strokeColor=#457B9D;fontColor=#FFFFFF;labelBackgroundColor=none;rounded=0;" vertex="1" parent="OFqDbIYOe_2my_a9MHT3-108">
                    <mxGeometry y="60" width="180" height="30" as="geometry"/>
                </mxCell>
                <mxCell id="14" style="shape=partialRectangle;connectable=0;fillColor=none;top=0;left=0;bottom=0;right=0;fontStyle=1;overflow=hidden;whiteSpace=wrap;html=1;strokeColor=#457B9D;fontColor=#FFFFFF;labelBackgroundColor=none;rounded=0;" vertex="1" parent="13">
                    <mxGeometry width="30" height="30" as="geometry">
                        <mxRectangle width="30" height="30" as="alternateBounds"/>
                    </mxGeometry>
                </mxCell>
                <mxCell id="15" value="genre" style="shape=partialRectangle;connectable=0;fillColor=none;top=0;left=0;bottom=0;right=0;align=left;spacingLeft=6;fontStyle=1;overflow=hidden;whiteSpace=wrap;html=1;strokeColor=#457B9D;fontColor=#FFFFFF;labelBackgroundColor=none;rounded=0;" vertex="1" parent="13">
                    <mxGeometry x="30" width="150" height="30" as="geometry">
                        <mxRectangle width="150" height="30" as="alternateBounds"/>
                    </mxGeometry>
                </mxCell>
                <mxCell id="10" style="shape=tableRow;horizontal=0;startSize=0;swimlaneHead=0;swimlaneBody=0;fillColor=none;collapsible=0;dropTarget=0;points=[[0,0.5],[1,0.5]];portConstraint=eastwest;top=0;left=0;right=0;bottom=1;strokeColor=#457B9D;fontColor=#FFFFFF;labelBackgroundColor=none;rounded=0;" vertex="1" parent="OFqDbIYOe_2my_a9MHT3-108">
                    <mxGeometry y="90" width="180" height="30" as="geometry"/>
                </mxCell>
                <mxCell id="11" style="shape=partialRectangle;connectable=0;fillColor=none;top=0;left=0;bottom=0;right=0;fontStyle=1;overflow=hidden;whiteSpace=wrap;html=1;strokeColor=#457B9D;fontColor=#FFFFFF;labelBackgroundColor=none;rounded=0;" vertex="1" parent="10">
                    <mxGeometry width="30" height="30" as="geometry">
                        <mxRectangle width="30" height="30" as="alternateBounds"/>
                    </mxGeometry>
                </mxCell>
                <mxCell id="12" value="&lt;span style=&quot;font-weight: 400;&quot;&gt;country&lt;/span&gt;" style="shape=partialRectangle;connectable=0;fillColor=none;top=0;left=0;bottom=0;right=0;align=left;spacingLeft=6;fontStyle=1;overflow=hidden;whiteSpace=wrap;html=1;strokeColor=#457B9D;fontColor=#FFFFFF;labelBackgroundColor=none;rounded=0;" vertex="1" parent="10">
                    <mxGeometry x="30" width="150" height="30" as="geometry">
                        <mxRectangle width="150" height="30" as="alternateBounds"/>
                    </mxGeometry>
                </mxCell>
                <mxCell id="19" style="shape=tableRow;horizontal=0;startSize=0;swimlaneHead=0;swimlaneBody=0;fillColor=none;collapsible=0;dropTarget=0;points=[[0,0.5],[1,0.5]];portConstraint=eastwest;top=0;left=0;right=0;bottom=1;strokeColor=#457B9D;fontColor=#FFFFFF;labelBackgroundColor=none;rounded=0;" vertex="1" parent="OFqDbIYOe_2my_a9MHT3-108">
                    <mxGeometry y="120" width="180" height="30" as="geometry"/>
                </mxCell>
                <mxCell id="20" style="shape=partialRectangle;connectable=0;fillColor=none;top=0;left=0;bottom=0;right=0;fontStyle=1;overflow=hidden;whiteSpace=wrap;html=1;strokeColor=#457B9D;fontColor=#FFFFFF;labelBackgroundColor=none;rounded=0;" vertex="1" parent="19">
                    <mxGeometry width="30" height="30" as="geometry">
                        <mxRectangle width="30" height="30" as="alternateBounds"/>
                    </mxGeometry>
                </mxCell>
                <mxCell id="21" value="ages" style="shape=partialRectangle;connectable=0;fillColor=none;top=0;left=0;bottom=0;right=0;align=left;spacingLeft=6;fontStyle=1;overflow=hidden;whiteSpace=wrap;html=1;strokeColor=#457B9D;fontColor=#FFFFFF;labelBackgroundColor=none;rounded=0;" vertex="1" parent="19">
                    <mxGeometry x="30" width="150" height="30" as="geometry">
                        <mxRectangle width="150" height="30" as="alternateBounds"/>
                    </mxGeometry>
                </mxCell>
                <mxCell id="OFqDbIYOe_2my_a9MHT3-124" value="fav_atrist" style="rhombus;whiteSpace=wrap;html=1;labelBackgroundColor=none;fillColor=#008a00;strokeColor=#005700;fontColor=#ffffff;rounded=0;" parent="1" vertex="1">
                    <mxGeometry x="971" y="500" width="67" height="26" as="geometry"/>
                </mxCell>
                <mxCell id="OFqDbIYOe_2my_a9MHT3-125" value="" style="endArrow=none;html=1;rounded=0;strokeColor=#457B9D;fontColor=#FFFFFF;fillColor=#A8DADC;entryX=0;entryY=0.5;entryDx=0;entryDy=0;labelBackgroundColor=none;edgeStyle=orthogonalEdgeStyle;startArrow=ERzeroToMany;startFill=0;" parent="1" target="OFqDbIYOe_2my_a9MHT3-124" edge="1">
                    <mxGeometry width="50" height="50" relative="1" as="geometry">
                        <mxPoint x="810" y="550" as="sourcePoint"/>
                        <mxPoint x="860" y="500" as="targetPoint"/>
                    </mxGeometry>
                </mxCell>
                <mxCell id="OFqDbIYOe_2my_a9MHT3-128" value="" style="endArrow=ERzeroToMany;html=1;rounded=0;strokeColor=#457B9D;fontColor=#FFFFFF;fillColor=#A8DADC;exitX=1;exitY=0.5;exitDx=0;exitDy=0;labelBackgroundColor=none;entryX=-0.024;entryY=-0.095;entryDx=0;entryDy=0;entryPerimeter=0;edgeStyle=orthogonalEdgeStyle;endFill=0;" parent="1" source="OFqDbIYOe_2my_a9MHT3-124" edge="1" target="OFqDbIYOe_2my_a9MHT3-50">
                    <mxGeometry width="50" height="50" relative="1" as="geometry">
                        <mxPoint x="1030" y="560" as="sourcePoint"/>
                        <mxPoint x="1180" y="819" as="targetPoint"/>
                    </mxGeometry>
                </mxCell>
                <mxCell id="OFqDbIYOe_2my_a9MHT3-135" value="Concert_Ticket" style="shape=table;startSize=30;container=1;collapsible=1;childLayout=tableLayout;fixedRows=1;rowLines=0;fontStyle=1;align=center;resizeLast=1;html=1;strokeColor=#005700;fontColor=#ffffff;fillColor=#008a00;labelBackgroundColor=none;rounded=0;" parent="1" vertex="1">
                    <mxGeometry x="1620" y="1130" width="180" height="90" as="geometry">
                        <mxRectangle x="1620" y="1130" width="120" height="30" as="alternateBounds"/>
                    </mxGeometry>
                </mxCell>
                <mxCell id="OFqDbIYOe_2my_a9MHT3-136" value="" style="shape=tableRow;horizontal=0;startSize=0;swimlaneHead=0;swimlaneBody=0;fillColor=none;collapsible=0;dropTarget=0;points=[[0,0.5],[1,0.5]];portConstraint=eastwest;top=0;left=0;right=0;bottom=1;strokeColor=#457B9D;fontColor=#FFFFFF;labelBackgroundColor=none;rounded=0;" parent="OFqDbIYOe_2my_a9MHT3-135" vertex="1">
                    <mxGeometry y="30" width="180" height="30" as="geometry"/>
                </mxCell>
                <mxCell id="OFqDbIYOe_2my_a9MHT3-137" value="PK" style="shape=partialRectangle;connectable=0;fillColor=none;top=0;left=0;bottom=0;right=0;fontStyle=1;overflow=hidden;whiteSpace=wrap;html=1;strokeColor=#457B9D;fontColor=#FFFFFF;labelBackgroundColor=none;rounded=0;" parent="OFqDbIYOe_2my_a9MHT3-136" vertex="1">
                    <mxGeometry width="30" height="30" as="geometry">
                        <mxRectangle width="30" height="30" as="alternateBounds"/>
                    </mxGeometry>
                </mxCell>
                <mxCell id="OFqDbIYOe_2my_a9MHT3-138" value="ID" style="shape=partialRectangle;connectable=0;fillColor=none;top=0;left=0;bottom=0;right=0;align=left;spacingLeft=6;fontStyle=5;overflow=hidden;whiteSpace=wrap;html=1;strokeColor=#457B9D;fontColor=#FFFFFF;labelBackgroundColor=none;rounded=0;" parent="OFqDbIYOe_2my_a9MHT3-136" vertex="1">
                    <mxGeometry x="30" width="150" height="30" as="geometry">
                        <mxRectangle width="150" height="30" as="alternateBounds"/>
                    </mxGeometry>
                </mxCell>
                <mxCell id="OFqDbIYOe_2my_a9MHT3-139" value="" style="shape=tableRow;horizontal=0;startSize=0;swimlaneHead=0;swimlaneBody=0;fillColor=none;collapsible=0;dropTarget=0;points=[[0,0.5],[1,0.5]];portConstraint=eastwest;top=0;left=0;right=0;bottom=0;strokeColor=#457B9D;fontColor=#FFFFFF;labelBackgroundColor=none;rounded=0;" parent="OFqDbIYOe_2my_a9MHT3-135" vertex="1">
                    <mxGeometry y="60" width="180" height="30" as="geometry"/>
                </mxCell>
                <mxCell id="OFqDbIYOe_2my_a9MHT3-140" value="" style="shape=partialRectangle;connectable=0;fillColor=none;top=0;left=0;bottom=0;right=0;editable=1;overflow=hidden;whiteSpace=wrap;html=1;strokeColor=#457B9D;fontColor=#FFFFFF;labelBackgroundColor=none;rounded=0;" parent="OFqDbIYOe_2my_a9MHT3-139" vertex="1">
                    <mxGeometry width="30" height="30" as="geometry">
                        <mxRectangle width="30" height="30" as="alternateBounds"/>
                    </mxGeometry>
                </mxCell>
                <mxCell id="OFqDbIYOe_2my_a9MHT3-141" value="isValid" style="shape=partialRectangle;connectable=0;fillColor=none;top=0;left=0;bottom=0;right=0;align=left;spacingLeft=6;overflow=hidden;whiteSpace=wrap;html=1;strokeColor=#457B9D;fontColor=#FFFFFF;labelBackgroundColor=none;rounded=0;" parent="OFqDbIYOe_2my_a9MHT3-139" vertex="1">
                    <mxGeometry x="30" width="150" height="30" as="geometry">
                        <mxRectangle width="150" height="30" as="alternateBounds"/>
                    </mxGeometry>
                </mxCell>
                <mxCell id="OFqDbIYOe_2my_a9MHT3-146" value="has" style="rhombus;whiteSpace=wrap;html=1;labelBackgroundColor=none;fillColor=#008a00;strokeColor=#005700;fontColor=#ffffff;rounded=0;" parent="1" vertex="1">
                    <mxGeometry x="705" y="767" width="37" height="26" as="geometry"/>
                </mxCell>
                <mxCell id="OFqDbIYOe_2my_a9MHT3-150" value="" style="endArrow=ERzeroToMany;html=1;rounded=0;strokeColor=#457B9D;fontColor=#FFFFFF;fillColor=#A8DADC;entryX=0;entryY=0.5;entryDx=0;entryDy=0;labelBackgroundColor=none;endFill=0;edgeStyle=orthogonalEdgeStyle;exitX=0.5;exitY=1;exitDx=0;exitDy=0;" parent="1" target="OFqDbIYOe_2my_a9MHT3-136" edge="1" source="OFqDbIYOe_2my_a9MHT3-146">
                    <mxGeometry width="50" height="50" relative="1" as="geometry">
                        <mxPoint x="720" y="1150" as="sourcePoint"/>
                        <mxPoint x="770" y="1100" as="targetPoint"/>
                    </mxGeometry>
                </mxCell>
                <mxCell id="OFqDbIYOe_2my_a9MHT3-172" value="playlist" style="shape=table;startSize=30;container=1;collapsible=1;childLayout=tableLayout;fixedRows=1;rowLines=0;fontStyle=1;align=center;resizeLast=1;html=1;strokeColor=#005700;fontColor=#ffffff;fillColor=#008a00;labelBackgroundColor=none;rounded=0;" parent="1" vertex="1">
                    <mxGeometry x="1170" y="150" width="180" height="125" as="geometry"/>
                </mxCell>
                <mxCell id="OFqDbIYOe_2my_a9MHT3-173" value="" style="shape=tableRow;horizontal=0;startSize=0;swimlaneHead=0;swimlaneBody=0;fillColor=none;collapsible=0;dropTarget=0;points=[[0,0.5],[1,0.5]];portConstraint=eastwest;top=0;left=0;right=0;bottom=1;strokeColor=#457B9D;fontColor=#FFFFFF;labelBackgroundColor=none;rounded=0;" parent="OFqDbIYOe_2my_a9MHT3-172" vertex="1">
                    <mxGeometry y="30" width="180" height="35" as="geometry"/>
                </mxCell>
                <mxCell id="OFqDbIYOe_2my_a9MHT3-174" value="PK" style="shape=partialRectangle;connectable=0;fillColor=none;top=0;left=0;bottom=0;right=0;fontStyle=1;overflow=hidden;whiteSpace=wrap;html=1;strokeColor=#457B9D;fontColor=#FFFFFF;labelBackgroundColor=none;rounded=0;" parent="OFqDbIYOe_2my_a9MHT3-173" vertex="1">
                    <mxGeometry width="30" height="35" as="geometry">
                        <mxRectangle width="30" height="35" as="alternateBounds"/>
                    </mxGeometry>
                </mxCell>
                <mxCell id="OFqDbIYOe_2my_a9MHT3-175" value="PlaylistID" style="shape=partialRectangle;connectable=0;fillColor=none;top=0;left=0;bottom=0;right=0;align=left;spacingLeft=6;fontStyle=5;overflow=hidden;whiteSpace=wrap;html=1;strokeColor=#457B9D;fontColor=#FFFFFF;labelBackgroundColor=none;rounded=0;" parent="OFqDbIYOe_2my_a9MHT3-173" vertex="1">
                    <mxGeometry x="30" width="150" height="35" as="geometry">
                        <mxRectangle width="150" height="35" as="alternateBounds"/>
                    </mxGeometry>
                </mxCell>
                <mxCell id="OFqDbIYOe_2my_a9MHT3-176" value="" style="shape=tableRow;horizontal=0;startSize=0;swimlaneHead=0;swimlaneBody=0;fillColor=none;collapsible=0;dropTarget=0;points=[[0,0.5],[1,0.5]];portConstraint=eastwest;top=0;left=0;right=0;bottom=0;strokeColor=#457B9D;fontColor=#FFFFFF;labelBackgroundColor=none;rounded=0;" parent="OFqDbIYOe_2my_a9MHT3-172" vertex="1">
                    <mxGeometry y="65" width="180" height="30" as="geometry"/>
                </mxCell>
                <mxCell id="OFqDbIYOe_2my_a9MHT3-177" value="" style="shape=partialRectangle;connectable=0;fillColor=none;top=0;left=0;bottom=0;right=0;editable=1;overflow=hidden;whiteSpace=wrap;html=1;strokeColor=#457B9D;fontColor=#FFFFFF;labelBackgroundColor=none;rounded=0;" parent="OFqDbIYOe_2my_a9MHT3-176" vertex="1">
                    <mxGeometry width="30" height="30" as="geometry">
                        <mxRectangle width="30" height="30" as="alternateBounds"/>
                    </mxGeometry>
                </mxCell>
                <mxCell id="OFqDbIYOe_2my_a9MHT3-178" value="name" style="shape=partialRectangle;connectable=0;fillColor=none;top=0;left=0;bottom=0;right=0;align=left;spacingLeft=6;overflow=hidden;whiteSpace=wrap;html=1;strokeColor=#457B9D;fontColor=#FFFFFF;labelBackgroundColor=none;rounded=0;" parent="OFqDbIYOe_2my_a9MHT3-176" vertex="1">
                    <mxGeometry x="30" width="150" height="30" as="geometry">
                        <mxRectangle width="150" height="30" as="alternateBounds"/>
                    </mxGeometry>
                </mxCell>
                <mxCell id="07pzX-aF63wN3rvmMnTV-1" style="shape=tableRow;horizontal=0;startSize=0;swimlaneHead=0;swimlaneBody=0;fillColor=none;collapsible=0;dropTarget=0;points=[[0,0.5],[1,0.5]];portConstraint=eastwest;top=0;left=0;right=0;bottom=0;strokeColor=#457B9D;fontColor=#FFFFFF;labelBackgroundColor=none;rounded=0;" parent="OFqDbIYOe_2my_a9MHT3-172" vertex="1">
                    <mxGeometry y="95" width="180" height="30" as="geometry"/>
                </mxCell>
                <mxCell id="07pzX-aF63wN3rvmMnTV-2" style="shape=partialRectangle;connectable=0;fillColor=none;top=0;left=0;bottom=0;right=0;editable=1;overflow=hidden;whiteSpace=wrap;html=1;strokeColor=#457B9D;fontColor=#FFFFFF;labelBackgroundColor=none;rounded=0;" parent="07pzX-aF63wN3rvmMnTV-1" vertex="1">
                    <mxGeometry width="30" height="30" as="geometry">
                        <mxRectangle width="30" height="30" as="alternateBounds"/>
                    </mxGeometry>
                </mxCell>
                <mxCell id="07pzX-aF63wN3rvmMnTV-3" value="isPrivate" style="shape=partialRectangle;connectable=0;fillColor=none;top=0;left=0;bottom=0;right=0;align=left;spacingLeft=6;overflow=hidden;whiteSpace=wrap;html=1;strokeColor=#457B9D;fontColor=#FFFFFF;labelBackgroundColor=none;rounded=0;" parent="07pzX-aF63wN3rvmMnTV-1" vertex="1">
                    <mxGeometry x="30" width="150" height="30" as="geometry">
                        <mxRectangle width="150" height="30" as="alternateBounds"/>
                    </mxGeometry>
                </mxCell>
                <mxCell id="07pzX-aF63wN3rvmMnTV-7" value="fav_playlist" style="rhombus;whiteSpace=wrap;html=1;labelBackgroundColor=none;fillColor=#008a00;strokeColor=#005700;fontColor=#ffffff;rounded=0;" parent="1" vertex="1">
                    <mxGeometry x="959" y="383" width="77" height="26" as="geometry"/>
                </mxCell>
                <mxCell id="07pzX-aF63wN3rvmMnTV-8" value="" style="endArrow=none;html=1;rounded=0;labelBackgroundColor=none;strokeColor=#457B9D;fontColor=#FFFFFF;exitX=0.75;exitY=0;exitDx=0;exitDy=0;startArrow=ERzeroToMany;startFill=0;edgeStyle=orthogonalEdgeStyle;entryX=0;entryY=0.5;entryDx=0;entryDy=0;" parent="1" source="fZQeGDUFqkQw0Y8u2uUr-1" edge="1" target="07pzX-aF63wN3rvmMnTV-7">
                    <mxGeometry width="50" height="50" relative="1" as="geometry">
                        <mxPoint x="880" y="350" as="sourcePoint"/>
                        <mxPoint x="930" y="300" as="targetPoint"/>
                    </mxGeometry>
                </mxCell>
                <mxCell id="07pzX-aF63wN3rvmMnTV-9" value="" style="endArrow=ERzeroToMany;html=1;rounded=0;strokeColor=#457B9D;fontColor=#FFFFFF;fillColor=#A8DADC;entryX=-0.009;entryY=0.823;entryDx=0;entryDy=0;entryPerimeter=0;labelBackgroundColor=none;endFill=0;exitX=1;exitY=0.5;exitDx=0;exitDy=0;edgeStyle=orthogonalEdgeStyle;" parent="1" target="OFqDbIYOe_2my_a9MHT3-176" edge="1" source="07pzX-aF63wN3rvmMnTV-7">
                    <mxGeometry width="50" height="50" relative="1" as="geometry">
                        <mxPoint x="1010" y="300" as="sourcePoint"/>
                        <mxPoint x="1110" y="260" as="targetPoint"/>
                    </mxGeometry>
                </mxCell>
                <mxCell id="07pzX-aF63wN3rvmMnTV-11" value="" style="endArrow=ERzeroToMany;html=1;rounded=0;strokeColor=#457B9D;fontColor=#FFFFFF;fillColor=#A8DADC;entryX=0.503;entryY=0.996;entryDx=0;entryDy=0;entryPerimeter=0;labelBackgroundColor=none;exitX=0.5;exitY=0;exitDx=0;exitDy=0;edgeStyle=orthogonalEdgeStyle;endFill=0;" parent="1" target="07pzX-aF63wN3rvmMnTV-1" edge="1" source="88">
                    <mxGeometry width="50" height="50" relative="1" as="geometry">
                        <mxPoint x="1261" y="342" as="sourcePoint"/>
                        <mxPoint x="1310" y="270" as="targetPoint"/>
                    </mxGeometry>
                </mxCell>
                <mxCell id="07pzX-aF63wN3rvmMnTV-12" value="" style="endArrow=none;html=1;rounded=0;strokeColor=#457B9D;fontColor=#FFFFFF;fillColor=#A8DADC;exitX=0.5;exitY=0;exitDx=0;exitDy=0;labelBackgroundColor=none;entryX=0.5;entryY=1;entryDx=0;entryDy=0;edgeStyle=orthogonalEdgeStyle;endFill=0;startArrow=ERoneToMany;startFill=0;" parent="1" source="OFqDbIYOe_2my_a9MHT3-62" edge="1" target="88">
                    <mxGeometry width="50" height="50" relative="1" as="geometry">
                        <mxPoint x="1210" y="450" as="sourcePoint"/>
                        <mxPoint x="1261" y="367" as="targetPoint"/>
                    </mxGeometry>
                </mxCell>
                <mxCell id="07pzX-aF63wN3rvmMnTV-15" value="" style="endArrow=ERmandOne;html=1;rounded=0;strokeColor=#457B9D;fontColor=#FFFFFF;fillColor=#A8DADC;labelBackgroundColor=none;edgeStyle=entityRelationEdgeStyle;endFill=0;exitX=0;exitY=0.5;exitDx=0;exitDy=0;entryX=1;entryY=0.17;entryDx=0;entryDy=0;entryPerimeter=0;" parent="1" source="59" target="OFqDbIYOe_2my_a9MHT3-50" edge="1">
                    <mxGeometry width="50" height="50" relative="1" as="geometry">
                        <mxPoint x="1406" y="557" as="sourcePoint"/>
                        <mxPoint x="1353" y="881" as="targetPoint"/>
                    </mxGeometry>
                </mxCell>
                <mxCell id="07pzX-aF63wN3rvmMnTV-16" value="" style="endArrow=ERmandOne;html=1;rounded=0;strokeColor=#457B9D;fontColor=#FFFFFF;fillColor=#A8DADC;exitX=0.5;exitY=1;exitDx=0;exitDy=0;labelBackgroundColor=none;entryX=1;entryY=0.5;entryDx=0;entryDy=0;edgeStyle=orthogonalEdgeStyle;startArrow=none;startFill=0;endFill=0;" parent="1" source="37" edge="1" target="OFqDbIYOe_2my_a9MHT3-50">
                    <mxGeometry width="50" height="50" relative="1" as="geometry">
                        <mxPoint x="1460" y="869.9999999999998" as="sourcePoint"/>
                        <mxPoint x="1350" y="870" as="targetPoint"/>
                    </mxGeometry>
                </mxCell>
                <mxCell id="07pzX-aF63wN3rvmMnTV-17" value="" style="endArrow=ERzeroToMany;html=1;rounded=0;strokeColor=#457B9D;fontColor=#FFFFFF;fillColor=#A8DADC;exitX=0.5;exitY=0;exitDx=0;exitDy=0;labelBackgroundColor=none;endFill=0;entryX=0.5;entryY=0.992;entryDx=0;entryDy=0;entryPerimeter=0;" parent="1" source="OFqDbIYOe_2my_a9MHT3-146" target="OFqDbIYOe_2my_a9MHT3-129" edge="1">
                    <mxGeometry width="50" height="50" relative="1" as="geometry">
                        <mxPoint x="650" y="1100" as="sourcePoint"/>
                        <mxPoint x="724" y="667" as="targetPoint"/>
                    </mxGeometry>
                </mxCell>
                <mxCell id="VhpyAEORnqDmUM4WeILP-2" value="primum" style="rounded=0;whiteSpace=wrap;html=1;labelBackgroundColor=none;fillColor=#008a00;strokeColor=#005700;fontColor=#ffffff;" parent="1" vertex="1">
                    <mxGeometry x="-245" y="423" width="441" height="26" as="geometry"/>
                </mxCell>
                <mxCell id="VhpyAEORnqDmUM4WeILP-3" value="free" style="rounded=0;whiteSpace=wrap;html=1;labelBackgroundColor=none;fillColor=#008a00;strokeColor=#005700;fontColor=#ffffff;" parent="1" vertex="1">
                    <mxGeometry x="171" y="612" width="39" height="26" as="geometry"/>
                </mxCell>
                <mxCell id="6" style="html=1;exitX=1;exitY=0.5;exitDx=0;exitDy=0;fillColor=#1ba1e2;strokeColor=#457B9D;rounded=0;edgeStyle=orthogonalEdgeStyle;fontColor=#FFFFFF;endArrow=none;endFill=0;" parent="1" source="VhpyAEORnqDmUM4WeILP-8" edge="1">
                    <mxGeometry relative="1" as="geometry">
                        <mxPoint x="632" y="466" as="targetPoint"/>
                        <Array as="points">
                            <mxPoint x="481" y="557"/>
                            <mxPoint x="481" y="466"/>
                        </Array>
                    </mxGeometry>
                </mxCell>
                <mxCell id="VhpyAEORnqDmUM4WeILP-8" value="subscription" style="ellipse;whiteSpace=wrap;html=1;aspect=fixed;strokeColor=#005700;fontColor=#ffffff;fillColor=#008a00;rounded=0;" parent="1" vertex="1">
                    <mxGeometry x="344" y="516.5" width="82" height="82" as="geometry"/>
                </mxCell>
                <mxCell id="VhpyAEORnqDmUM4WeILP-9" value="" style="endArrow=none;html=1;rounded=0;strokeColor=#457B9D;fontColor=#FFFFFF;fillColor=#A8DADC;exitX=1;exitY=1;exitDx=0;exitDy=0;entryX=0;entryY=0;entryDx=0;entryDy=0;edgeStyle=orthogonalEdgeStyle;" parent="1" source="VhpyAEORnqDmUM4WeILP-2" target="VhpyAEORnqDmUM4WeILP-8" edge="1">
                    <mxGeometry width="50" height="50" relative="1" as="geometry">
                        <mxPoint x="290" y="587.5" as="sourcePoint"/>
                        <mxPoint x="340" y="537.5" as="targetPoint"/>
                    </mxGeometry>
                </mxCell>
                <mxCell id="VhpyAEORnqDmUM4WeILP-10" value="P" style="text;html=1;align=center;verticalAlign=middle;whiteSpace=wrap;rounded=0;labelBackgroundColor=none;fontColor=#FFFFFF;fillColor=#009900;" parent="1" vertex="1">
                    <mxGeometry x="277" y="448" width="26" height="26" as="geometry"/>
                </mxCell>
                <mxCell id="VhpyAEORnqDmUM4WeILP-11" value="" style="endArrow=none;html=1;rounded=0;strokeColor=#457B9D;fontColor=#FFFFFF;fillColor=#A8DADC;exitX=1;exitY=0.5;exitDx=0;exitDy=0;entryX=0.067;entryY=0.726;entryDx=0;entryDy=0;entryPerimeter=0;edgeStyle=orthogonalEdgeStyle;" parent="1" source="VhpyAEORnqDmUM4WeILP-3" target="VhpyAEORnqDmUM4WeILP-8" edge="1">
                    <mxGeometry width="50" height="50" relative="1" as="geometry">
                        <mxPoint x="300" y="627.5" as="sourcePoint"/>
                        <mxPoint x="350" y="577.5" as="targetPoint"/>
                    </mxGeometry>
                </mxCell>
                <mxCell id="VhpyAEORnqDmUM4WeILP-12" value="F" style="text;html=1;align=center;verticalAlign=middle;whiteSpace=wrap;rounded=0;labelBackgroundColor=none;fontColor=#FFFFFF;fillColor=#009900;" parent="1" vertex="1">
                    <mxGeometry x="257" y="592" width="25" height="26" as="geometry"/>
                </mxCell>
                <mxCell id="92" style="edgeStyle=orthogonalEdgeStyle;shape=connector;rounded=0;html=1;exitX=1;exitY=0.5;exitDx=0;exitDy=0;entryX=1;entryY=0;entryDx=0;entryDy=0;labelBackgroundColor=none;strokeColor=#457B9D;fontFamily=Helvetica;fontSize=11;fontColor=#FFFFFF;startArrow=none;startFill=0;endArrow=ERzeroToMany;endFill=0;fillColor=#A8DADC;" edge="1" parent="1" source="VhpyAEORnqDmUM4WeILP-13" target="OFqDbIYOe_2my_a9MHT3-62">
                    <mxGeometry relative="1" as="geometry">
                        <Array as="points">
                            <mxPoint x="1435" y="-10"/>
                            <mxPoint x="1435" y="435"/>
                        </Array>
                    </mxGeometry>
                </mxCell>
                <mxCell id="93" style="edgeStyle=orthogonalEdgeStyle;shape=connector;rounded=0;html=1;exitX=0;exitY=0.5;exitDx=0;exitDy=0;labelBackgroundColor=none;strokeColor=#457B9D;fontFamily=Helvetica;fontSize=11;fontColor=#FFFFFF;startArrow=none;startFill=0;endArrow=ERzeroToMany;endFill=0;fillColor=#A8DADC;entryX=0.75;entryY=0;entryDx=0;entryDy=0;" edge="1" parent="1" source="VhpyAEORnqDmUM4WeILP-13" target="VhpyAEORnqDmUM4WeILP-2">
                    <mxGeometry relative="1" as="geometry">
                        <mxPoint x="91" y="424" as="targetPoint"/>
                    </mxGeometry>
                </mxCell>
                <mxCell id="VhpyAEORnqDmUM4WeILP-13" value="like_song" style="rhombus;whiteSpace=wrap;html=1;labelBackgroundColor=none;fillColor=#008a00;strokeColor=#005700;fontColor=#ffffff;rounded=0;" parent="1" vertex="1">
                    <mxGeometry x="859" y="-23" width="69" height="26" as="geometry"/>
                </mxCell>
                <mxCell id="94" style="edgeStyle=orthogonalEdgeStyle;shape=connector;rounded=0;html=1;exitX=0;exitY=0.5;exitDx=0;exitDy=0;entryX=0.5;entryY=0;entryDx=0;entryDy=0;labelBackgroundColor=none;strokeColor=#457B9D;fontFamily=Helvetica;fontSize=11;fontColor=#FFFFFF;startArrow=none;startFill=0;endArrow=ERzeroToMany;endFill=0;fillColor=#A8DADC;" edge="1" parent="1" source="VhpyAEORnqDmUM4WeILP-22" target="VhpyAEORnqDmUM4WeILP-2">
                    <mxGeometry relative="1" as="geometry"/>
                </mxCell>
                <mxCell id="95" style="edgeStyle=orthogonalEdgeStyle;shape=connector;rounded=0;html=1;exitX=1;exitY=0.5;exitDx=0;exitDy=0;entryX=1;entryY=0.5;entryDx=0;entryDy=0;labelBackgroundColor=none;strokeColor=#457B9D;fontFamily=Helvetica;fontSize=11;fontColor=#FFFFFF;startArrow=none;startFill=0;endArrow=ERzeroToMany;endFill=0;fillColor=#A8DADC;" edge="1" parent="1" source="VhpyAEORnqDmUM4WeILP-22" target="OFqDbIYOe_2my_a9MHT3-63">
                    <mxGeometry relative="1" as="geometry">
                        <Array as="points">
                            <mxPoint x="1471" y="-97"/>
                            <mxPoint x="1471" y="482"/>
                        </Array>
                    </mxGeometry>
                </mxCell>
                <mxCell id="VhpyAEORnqDmUM4WeILP-22" value="comment_song" style="rhombus;whiteSpace=wrap;html=1;labelBackgroundColor=none;fillColor=#008a00;strokeColor=#005700;fontColor=#ffffff;rounded=0;" parent="1" vertex="1">
                    <mxGeometry x="835" y="-110" width="100" height="26" as="geometry"/>
                </mxCell>
                <mxCell id="96" style="edgeStyle=orthogonalEdgeStyle;shape=connector;rounded=0;html=1;exitX=1;exitY=0.5;exitDx=0;exitDy=0;entryX=0.75;entryY=0;entryDx=0;entryDy=0;labelBackgroundColor=none;strokeColor=#457B9D;fontFamily=Helvetica;fontSize=11;fontColor=#FFFFFF;startArrow=none;startFill=0;endArrow=ERzeroToMany;endFill=0;fillColor=#A8DADC;" edge="1" parent="1" source="VhpyAEORnqDmUM4WeILP-30" target="OFqDbIYOe_2my_a9MHT3-108">
                    <mxGeometry relative="1" as="geometry"/>
                </mxCell>
                <mxCell id="98" style="edgeStyle=orthogonalEdgeStyle;shape=connector;rounded=0;html=1;exitX=0;exitY=0.5;exitDx=0;exitDy=0;entryX=0;entryY=0;entryDx=0;entryDy=0;labelBackgroundColor=none;strokeColor=#457B9D;fontFamily=Helvetica;fontSize=11;fontColor=#FFFFFF;startArrow=none;startFill=0;endArrow=ERzeroToMany;endFill=0;fillColor=#A8DADC;" edge="1" parent="1" source="VhpyAEORnqDmUM4WeILP-30" target="VhpyAEORnqDmUM4WeILP-2">
                    <mxGeometry relative="1" as="geometry"/>
                </mxCell>
                <mxCell id="VhpyAEORnqDmUM4WeILP-30" value="comment_album" style="rhombus;whiteSpace=wrap;html=1;labelBackgroundColor=none;fillColor=#008a00;strokeColor=#005700;fontColor=#ffffff;rounded=0;" parent="1" vertex="1">
                    <mxGeometry x="826" y="-264" width="107" height="26" as="geometry"/>
                </mxCell>
                <mxCell id="97" style="edgeStyle=orthogonalEdgeStyle;shape=connector;rounded=0;html=1;exitX=1;exitY=0.5;exitDx=0;exitDy=0;labelBackgroundColor=none;strokeColor=#457B9D;fontFamily=Helvetica;fontSize=11;fontColor=#FFFFFF;startArrow=none;startFill=0;endArrow=ERzeroToMany;endFill=0;fillColor=#A8DADC;" edge="1" parent="1" source="VhpyAEORnqDmUM4WeILP-32" target="OFqDbIYOe_2my_a9MHT3-108">
                    <mxGeometry relative="1" as="geometry"/>
                </mxCell>
                <mxCell id="99" style="edgeStyle=orthogonalEdgeStyle;shape=connector;rounded=0;html=1;exitX=0;exitY=0.5;exitDx=0;exitDy=0;labelBackgroundColor=none;strokeColor=#457B9D;fontFamily=Helvetica;fontSize=11;fontColor=#FFFFFF;startArrow=none;startFill=0;endArrow=ERzeroToMany;endFill=0;fillColor=#A8DADC;entryX=0.25;entryY=0;entryDx=0;entryDy=0;" edge="1" parent="1" source="VhpyAEORnqDmUM4WeILP-32" target="VhpyAEORnqDmUM4WeILP-2">
                    <mxGeometry relative="1" as="geometry">
                        <mxPoint x="311" y="320" as="targetPoint"/>
                    </mxGeometry>
                </mxCell>
                <mxCell id="VhpyAEORnqDmUM4WeILP-32" value="like_album" style="rhombus;whiteSpace=wrap;html=1;labelBackgroundColor=none;fillColor=#008a00;strokeColor=#005700;fontColor=#ffffff;rounded=0;" parent="1" vertex="1">
                    <mxGeometry x="847" y="-189" width="75" height="26" as="geometry"/>
                </mxCell>
                <mxCell id="90" style="edgeStyle=orthogonalEdgeStyle;shape=connector;rounded=0;html=1;exitX=1;exitY=0.5;exitDx=0;exitDy=0;labelBackgroundColor=none;strokeColor=#457B9D;fontFamily=Helvetica;fontSize=11;fontColor=#FFFFFF;startArrow=none;startFill=0;endArrow=ERzeroToMany;endFill=0;fillColor=#A8DADC;" edge="1" parent="1" source="VhpyAEORnqDmUM4WeILP-40" target="OFqDbIYOe_2my_a9MHT3-172">
                    <mxGeometry relative="1" as="geometry"/>
                </mxCell>
                <mxCell id="91" style="edgeStyle=orthogonalEdgeStyle;shape=connector;rounded=0;html=1;exitX=0;exitY=0.5;exitDx=0;exitDy=0;entryX=0.862;entryY=0;entryDx=0;entryDy=0;labelBackgroundColor=none;strokeColor=#457B9D;fontFamily=Helvetica;fontSize=11;fontColor=#FFFFFF;startArrow=none;startFill=0;endArrow=ERzeroToMany;endFill=0;fillColor=#A8DADC;entryPerimeter=0;" edge="1" parent="1" source="VhpyAEORnqDmUM4WeILP-40" target="VhpyAEORnqDmUM4WeILP-2">
                    <mxGeometry relative="1" as="geometry"/>
                </mxCell>
                <mxCell id="VhpyAEORnqDmUM4WeILP-40" value="comment_playlist" style="rhombus;whiteSpace=wrap;html=1;labelBackgroundColor=none;fillColor=#008a00;strokeColor=#005700;fontColor=#ffffff;rounded=0;" parent="1" vertex="1">
                    <mxGeometry x="845" y="50" width="111" height="26" as="geometry"/>
                </mxCell>
                <mxCell id="VhpyAEORnqDmUM4WeILP-42" value="like_playlist" style="rhombus;whiteSpace=wrap;html=1;labelBackgroundColor=none;fillColor=#008a00;strokeColor=#005700;fontColor=#ffffff;rounded=0;" parent="1" vertex="1">
                    <mxGeometry x="870" y="113" width="79" height="26" as="geometry"/>
                </mxCell>
                <mxCell id="VhpyAEORnqDmUM4WeILP-45" value="" style="endArrow=ERzeroToMany;html=1;rounded=0;strokeColor=#457B9D;fontColor=#FFFFFF;fillColor=#A8DADC;exitX=1;exitY=0.5;exitDx=0;exitDy=0;entryX=0.052;entryY=0.006;entryDx=0;entryDy=0;entryPerimeter=0;edgeStyle=orthogonalEdgeStyle;endFill=0;" parent="1" source="VhpyAEORnqDmUM4WeILP-42" target="OFqDbIYOe_2my_a9MHT3-172" edge="1">
                    <mxGeometry width="50" height="50" relative="1" as="geometry">
                        <mxPoint x="340" y="80" as="sourcePoint"/>
                        <mxPoint x="1180" y="147" as="targetPoint"/>
                        <Array as="points">
                            <mxPoint x="1179" y="130"/>
                        </Array>
                    </mxGeometry>
                </mxCell>
                <mxCell id="sAcc5Dg420Q0R5ZJAO28-2" value="" style="endArrow=none;html=1;rounded=0;entryX=0;entryY=0.5;entryDx=0;entryDy=0;fillColor=#d5e8d4;strokeColor=#457B9D;fontColor=#FFFFFF;startArrow=ERzeroToMany;startFill=0;edgeStyle=orthogonalEdgeStyle;exitX=1;exitY=0;exitDx=0;exitDy=0;" parent="1" source="VhpyAEORnqDmUM4WeILP-2" target="VhpyAEORnqDmUM4WeILP-42" edge="1">
                    <mxGeometry width="50" height="50" relative="1" as="geometry">
                        <mxPoint x="234" y="412" as="sourcePoint"/>
                        <mxPoint x="310" y="181" as="targetPoint"/>
                    </mxGeometry>
                </mxCell>
                <mxCell id="18" value="" style="endArrow=classic;html=1;rounded=0;endSize=8;startSize=8;sourcePerimeterSpacing=0;targetPerimeterSpacing=0;fontColor=#FFFFFF;exitX=-0.01;exitY=0.733;exitDx=0;exitDy=0;entryX=1;entryY=0.5;entryDx=0;entryDy=0;fillColor=#008a00;strokeColor=#457B9D;exitPerimeter=0;edgeStyle=orthogonalEdgeStyle;" edge="1" parent="1" source="OFqDbIYOe_2my_a9MHT3-50" target="fZQeGDUFqkQw0Y8u2uUr-17">
                    <mxGeometry width="100" relative="1" as="geometry">
                        <mxPoint x="1171" y="779" as="sourcePoint"/>
                        <mxPoint x="1107" y="748" as="targetPoint"/>
                    </mxGeometry>
                </mxCell>
                <mxCell id="31" style="edgeStyle=orthogonalEdgeStyle;shape=connector;rounded=0;html=1;exitX=1;exitY=0.5;exitDx=0;exitDy=0;entryX=0;entryY=0.5;entryDx=0;entryDy=0;labelBackgroundColor=none;strokeColor=#457B9D;fontFamily=Helvetica;fontSize=11;fontColor=#FFFFFF;endArrow=ERzeroToMany;fillColor=#A8DADC;endFill=0;" edge="1" parent="1" source="30" target="OFqDbIYOe_2my_a9MHT3-173">
                    <mxGeometry relative="1" as="geometry">
                        <Array as="points">
                            <mxPoint x="922" y="198"/>
                        </Array>
                    </mxGeometry>
                </mxCell>
                <mxCell id="32" style="edgeStyle=orthogonalEdgeStyle;shape=connector;rounded=0;html=1;exitX=0;exitY=0.5;exitDx=0;exitDy=0;entryX=0.5;entryY=0;entryDx=0;entryDy=0;labelBackgroundColor=none;strokeColor=#457B9D;fontFamily=Helvetica;fontSize=11;fontColor=#FFFFFF;endArrow=ERone;fillColor=#A8DADC;endFill=0;targetPerimeterSpacing=0;strokeWidth=1;" edge="1" parent="1" source="30" target="fZQeGDUFqkQw0Y8u2uUr-1">
                    <mxGeometry relative="1" as="geometry"/>
                </mxCell>
                <mxCell id="30" value="has" style="rhombus;whiteSpace=wrap;html=1;rounded=0;labelBackgroundColor=none;strokeColor=#005700;fontFamily=Helvetica;fontSize=11;fontColor=#FFFFFF;fillColor=#008a00;gradientColor=none;" vertex="1" parent="1">
                    <mxGeometry x="766" y="185" width="36" height="25" as="geometry"/>
                </mxCell>
                <mxCell id="37" value="&lt;span style=&quot;font-size: 12px;&quot;&gt;has&lt;/span&gt;" style="shape=rhombus;double=1;perimeter=rhombusPerimeter;whiteSpace=wrap;html=1;align=center;rounded=0;labelBackgroundColor=none;strokeColor=#005700;fontFamily=Helvetica;fontSize=11;fontColor=#FFFFFF;fillColor=#008a00;gradientColor=none;" vertex="1" parent="1">
                    <mxGeometry x="1502" y="846" width="37" height="27" as="geometry"/>
                </mxCell>
                <mxCell id="59" value="has" style="shape=rhombus;double=1;perimeter=rhombusPerimeter;whiteSpace=wrap;html=1;align=center;rounded=0;labelBackgroundColor=none;strokeColor=#005700;fontFamily=Helvetica;fontSize=11;fontColor=#FFFFFF;fillColor=#008a00;gradientColor=none;" vertex="1" parent="1">
                    <mxGeometry x="1530" y="658" width="36" height="25" as="geometry"/>
                </mxCell>
                <mxCell id="64" value="has" style="shape=rhombus;double=1;perimeter=rhombusPerimeter;whiteSpace=wrap;html=1;align=center;rounded=0;labelBackgroundColor=none;strokeColor=#005700;fontFamily=Helvetica;fontSize=11;fontColor=#FFFFFF;fillColor=#008a00;gradientColor=none;" vertex="1" parent="1">
                    <mxGeometry x="1256" y="767" width="36" height="25" as="geometry"/>
                </mxCell>
                <mxCell id="69" value="" style="edgeStyle=orthogonalEdgeStyle;fontSize=12;html=1;endArrow=ERzeroToMany;endFill=0;rounded=0;labelBackgroundColor=none;strokeColor=#457B9D;fontFamily=Helvetica;fontColor=#FFFFFF;fillColor=#A8DADC;shape=connector;exitX=0.5;exitY=0;exitDx=0;exitDy=0;entryX=0;entryY=0.5;entryDx=0;entryDy=0;" edge="1" parent="1" source="37" target="OFqDbIYOe_2my_a9MHT3-82">
                    <mxGeometry width="100" height="100" relative="1" as="geometry">
                        <mxPoint x="1503" y="817" as="sourcePoint"/>
                        <mxPoint x="1603" y="717" as="targetPoint"/>
                    </mxGeometry>
                </mxCell>
                <mxCell id="70" value="" style="edgeStyle=orthogonalEdgeStyle;fontSize=12;html=1;endArrow=ERzeroToMany;endFill=0;rounded=0;labelBackgroundColor=none;strokeColor=#457B9D;fontFamily=Helvetica;fontColor=#FFFFFF;fillColor=#A8DADC;shape=connector;exitX=0.5;exitY=0;exitDx=0;exitDy=0;" edge="1" parent="1" source="64" target="OFqDbIYOe_2my_a9MHT3-62">
                    <mxGeometry width="100" height="100" relative="1" as="geometry">
                        <mxPoint x="1422" y="791" as="sourcePoint"/>
                        <mxPoint x="1522" y="691" as="targetPoint"/>
                    </mxGeometry>
                </mxCell>
                <mxCell id="71" value="" style="edgeStyle=entityRelationEdgeStyle;fontSize=12;html=1;endArrow=ERzeroToMany;endFill=0;rounded=0;labelBackgroundColor=none;strokeColor=#457B9D;fontFamily=Helvetica;fontColor=#FFFFFF;fillColor=#A8DADC;shape=connector;entryX=0;entryY=0.5;entryDx=0;entryDy=0;exitX=1;exitY=0.5;exitDx=0;exitDy=0;" edge="1" parent="1" source="59" target="OFqDbIYOe_2my_a9MHT3-109">
                    <mxGeometry width="100" height="100" relative="1" as="geometry">
                        <mxPoint x="1512" y="609" as="sourcePoint"/>
                        <mxPoint x="1612" y="509" as="targetPoint"/>
                    </mxGeometry>
                </mxCell>
                <mxCell id="76" style="edgeStyle=orthogonalEdgeStyle;shape=connector;rounded=0;html=1;exitX=0;exitY=0.5;exitDx=0;exitDy=0;labelBackgroundColor=none;strokeColor=#457B9D;fontFamily=Helvetica;fontSize=11;fontColor=#FFFFFF;startArrow=none;startFill=0;endArrow=ERoneToMany;endFill=0;fillColor=#A8DADC;entryX=1;entryY=0.5;entryDx=0;entryDy=0;" edge="1" parent="1" source="87" target="OFqDbIYOe_2my_a9MHT3-69">
                    <mxGeometry relative="1" as="geometry">
                        <mxPoint x="1442.7999267578125" y="607.199951171875" as="targetPoint"/>
                        <mxPoint x="1500" y="476.5" as="sourcePoint"/>
                    </mxGeometry>
                </mxCell>
                <mxCell id="78" value="" style="edgeStyle=entityRelationEdgeStyle;fontSize=12;html=1;endArrow=ERzeroToOne;endFill=0;rounded=0;labelBackgroundColor=none;strokeColor=#457B9D;fontFamily=Helvetica;fontColor=#FFFFFF;fillColor=#A8DADC;shape=connector;entryX=0;entryY=0.16;entryDx=0;entryDy=0;entryPerimeter=0;exitX=1;exitY=0.5;exitDx=0;exitDy=0;" edge="1" parent="1" source="87" target="OFqDbIYOe_2my_a9MHT3-109">
                    <mxGeometry width="100" height="100" relative="1" as="geometry">
                        <mxPoint x="1536" y="476.5" as="sourcePoint"/>
                        <mxPoint x="1642" y="459" as="targetPoint"/>
                    </mxGeometry>
                </mxCell>
                <mxCell id="81" style="edgeStyle=orthogonalEdgeStyle;shape=connector;rounded=0;html=1;exitX=0.5;exitY=1;exitDx=0;exitDy=0;entryX=1;entryY=0.5;entryDx=0;entryDy=0;labelBackgroundColor=none;strokeColor=#457B9D;fontFamily=Helvetica;fontSize=11;fontColor=#FFFFFF;startArrow=none;startFill=0;endArrow=ERone;endFill=0;fillColor=#A8DADC;" edge="1" parent="1" source="79" target="OFqDbIYOe_2my_a9MHT3-136">
                    <mxGeometry relative="1" as="geometry"/>
                </mxCell>
                <mxCell id="79" value="has" style="shape=rhombus;double=1;perimeter=rhombusPerimeter;whiteSpace=wrap;html=1;align=center;rounded=0;labelBackgroundColor=none;strokeColor=#005700;fontFamily=Helvetica;fontSize=11;fontColor=#FFFFFF;fillColor=#008a00;gradientColor=none;" vertex="1" parent="1">
                    <mxGeometry x="1649" y="990" width="36" height="25" as="geometry"/>
                </mxCell>
                <mxCell id="80" style="edgeStyle=orthogonalEdgeStyle;shape=connector;rounded=0;html=1;exitX=1;exitY=0.5;exitDx=0;exitDy=0;entryX=0.5;entryY=0;entryDx=0;entryDy=0;labelBackgroundColor=none;strokeColor=#457B9D;fontFamily=Helvetica;fontSize=11;fontColor=#FFFFFF;startArrow=ERmandOne;startFill=0;endArrow=none;endFill=0;fillColor=#A8DADC;" edge="1" parent="1" source="OFqDbIYOe_2my_a9MHT3-82" target="79">
                    <mxGeometry relative="1" as="geometry"/>
                </mxCell>
                <mxCell id="87" value="has" style="shape=rhombus;perimeter=rhombusPerimeter;whiteSpace=wrap;html=1;align=center;rounded=0;labelBackgroundColor=none;strokeColor=#005700;fontFamily=Helvetica;fontSize=11;fontColor=#FFFFFF;fillColor=#008a00;gradientColor=none;" vertex="1" parent="1">
                    <mxGeometry x="1509" y="516" width="36" height="25" as="geometry"/>
                </mxCell>
                <mxCell id="88" value="Playlist_Songs" style="shape=rhombus;perimeter=rhombusPerimeter;whiteSpace=wrap;html=1;align=center;rounded=0;labelBackgroundColor=none;strokeColor=#005700;fontFamily=Helvetica;fontSize=11;fontColor=#FFFFFF;fillColor=#008a00;gradientColor=none;" vertex="1" parent="1">
                    <mxGeometry x="1216" y="341" width="90" height="25" as="geometry"/>
                </mxCell>
            </root>
        </mxGraphModel>
    </diagram>
</mxfile>